<svg xmlns="http://www.w3.org/2000/svg" viewBox="0 0 1600 1000" role="img" aria-labelledby="title desc">
  <title id="title">AnimeLegno Studio creative website preview</title>
  <desc id="desc">An editorial studio page using dark typography and sculptural wood images.</desc>
  <rect width="1600" height="1000" fill="#0d0d0e"/>
  <text x="66" y="72" fill="#f1f0ed" font-family="monospace" font-weight="bold" font-size="24">ANIMELEGNO</text>
  <text x="1314" y="72" fill="#777478" font-family="monospace" font-size="14">STUDIO / 2026</text>
  <line x1="66" y1="100" x2="1534" y2="100" stroke="#343437"/>
  <text x="66" y="224" fill="#f1f0ed" font-family="monospace" font-weight="bold" font-size="102">WOOD WITH</text>
  <text x="488" y="326" fill="#f1f0ed" font-family="monospace" font-weight="bold" font-size="102">A SECOND LIFE.</text>
  <g transform="translate(72 388)">
    <rect width="330" height="474" fill="#6f6557"/>
    <path d="M0 410L126 42l92 220L330 0v474H0z" fill="#b3a58d"/>
    <path d="M42 0c74 118 50 238 152 474M244 0c-80 132-24 276-132 474" fill="none" stroke="#574f43" stroke-width="4"/>
    <text x="18" y="448" fill="#151414" font-family="monospace" font-size="13">OBJECT / 01</text>
  </g>
  <g transform="translate(438 430)">
    <rect width="410" height="386" fill="#d4d0c5"/>
    <ellipse cx="205" cy="192" rx="104" ry="172" fill="#80735f"/>
    <path d="M168 31c-10 94 78 186 12 320M242 24c34 106-38 208 14 326" fill="none" stroke="#4f473d" stroke-width="5"/>
    <circle cx="201" cy="192" r="38" fill="#2b2825"/>
    <text x="18" y="360" fill="#151414" font-family="monospace" font-size="13">DETAIL / GRAIN</text>
  </g>
  <g transform="translate(886 374)">
    <rect width="640" height="506" fill="#19191b" stroke="#37373a"/>
    <path d="M76 428L230 78l108 156 92-116 136 310z" fill="#8d806c"/>
    <path d="M180 427L292 166l74 106 72-77 70 232z" fill="#b0a38b"/>
    <text x="32" y="52" fill="#777478" font-family="monospace" font-size="13">HAND / MATERIAL / TIME</text>
    <text x="438" y="470" fill="#f1f0ed" font-family="monospace" font-size="13">VIEW STORY ↗</text>
  </g>
  <rect x="752" y="336" width="10" height="10" fill="#21a35c"/>
  <path d="M712 341h90M757 296v90" stroke="#f1f0ed"/>
  <text x="66" y="944" fill="#777478" font-family="monospace" font-size="13">CREATIVE DEVELOPMENT / IMAGE MOVEMENT / PERFORMANCE</text>
</svg>
